<svg width="65.293mm" height="28.434mm" version="1.1" viewBox="0 0 65.293 28.434" xmlns="http://www.w3.org/2000/svg">
 <g transform="translate(-24.05 -71.962)" fill="#fff">
  <path d="m56.78 83.771c0.89253-0.16192 1.0449-2.624 1.0449-2.624 0.1457-2.9891-0.70485-7.6302-0.70485-7.6302-0.19438-0.80222 0.17004-0.09772 0.17004-0.09772 1.9198 4.2287 1.5067 7.6302 1.5067 7.6302-0.07303 3.0378 0.92322 2.6973 0.92322 2.6973 1.0453-0.1457 1.0206-2.794 1.0206-2.794-0.04904-4.3744-3.1348-7.7519-3.1348-7.7519-0.63182-0.87489 0.09737-0.19473 0.09737-0.19473 3.961 3.5479 3.961 7.7519 3.961 7.7519-0.04833 3.1104 0.97155 3.0131 0.97155 3.0131 1.215-0.02434 1.0943-2.9161 1.0943-2.9161-0.82621-5.6861-6.0269-8.2621-6.0269-8.2621-0.51012-0.31538-0.04868-0.17004-0.04868-0.17004 6.2692 2.5273 6.9014 8.4564 6.9014 8.4564 0.51012 3.1835 1.6281 2.843 1.6281 2.843 0.77717 0 0.92392-1.2636 0.92392-1.2636 0-5.7972-4.7392-10.485-10.45-10.498h-0.04798c-5.7108 0.0127-10.45 4.7004-10.45 10.498 0 0 0.1464 1.2636 0.92392 1.2636 0 0 1.1176 0.34043 1.6281-2.843 0 0 0.63147-5.9291 6.901-8.4564 0 0 0.46178-0.14534-0.04833 0.17004 0 0-5.2003 2.576-6.0261 8.2621 0 0-0.12171 2.8917 1.0933 2.9161 0 0 1.0202 0.09737 0.97226-3.0131 0 0 0-4.2041 3.9606-7.7519 0 0 0.72884-0.68016 0.09737 0.19473 0 0-3.0861 3.3775-3.1348 7.7519 0 0-0.02434 2.6483 1.0206 2.794 0 0 0.9966 0.34043 0.92322-2.6973 0 0-0.4131-3.4015 1.5067-7.6302 0 0 0.36442-0.7045 0.17004 0.09772 0 0-0.8509 4.6411-0.70414 7.6302 0 0 0.14499 2.5026 1.0442 2.624 0 0 0.15734 0.02469 0.29139 0"/>
  <path d="m58.082 98.941c0 0.77541-0.62865 1.4033-1.4037 1.4033h-0.0381c-0.77576 0-1.4041-0.62794-1.4041-1.4033v-3.3923c0-0.77541 0.6283-1.4041 1.4041-1.4041h0.0381c0.77505 0 1.4037 0.62865 1.4037 1.4041z"/>
  <path d="m56.659 94.269-0.63182 0.01693-8.9909-10.611 0.34043-0.08149 8.0998 9.2343-5.0218-9.1694 0.37253-0.04868 5.1029 8.9101-2.4786-8.829 0.37253-0.03246 2.5919 8.7154 0.06491-8.6184 0.16192-0.01623z"/>
  <path d="m56.562 94.253 0.71296 0.03316 8.9909-10.611-0.34043-0.08149-8.0998 9.2343 5.0218-9.1694-0.37253-0.04868-5.1029 8.9101 2.4786-8.829-0.37253-0.03246-2.5919 8.7154-0.06491-8.6184-0.22719-0.03246z"/>
  <path d="m38.531 86.202s8.189 0.26741 14.166 8.0433c0 0 0.4131 0.60713 1.191 0.21837 0 0 0.72919-0.51012-0.09701-1.4577 0 0-3.8636-5.6134-10.911-8.3594 0 0-3.3292-1.2153-5.0546 0.48648 0 0-0.77752 0.92322 0.70485 1.0689"/>
  <path d="m74.774 86.202s-8.1883 0.26741-14.167 8.0433c0 0-0.4124 0.60713-1.1903 0.21837 0 0-0.72884-0.51012 0.09701-1.4577 0 0 3.8636-5.6134 10.911-8.3594 0 0 3.3285-1.2153 5.0542 0.48648 0 0 0.77788 0.92322-0.70485 1.0689"/>
  <path d="m38.418 87.708s0.58349-0.76094-0.71261-0.80962c0 0-1.1342-0.06491-1.6203 0.45332l-11.405 11.405s-1.7007 1.5558 0.48613 1.5716l0.90734 0.0159s0.77752 0.0487 1.5875-0.84208z"/>
  <path d="m42.36 88.326s0.55598-0.72602-0.6791-0.77188c0 0-1.0809-0.06209-1.5438 0.4318l-10.869 10.869s-1.6214 1.4831 0.4632 1.4986l0.86466 0.0148s0.74048 0.0462 1.5127-0.80362z"/>
  <path d="m45.483 89.284s0.48824-0.66499-0.62689-0.68333c0 0-0.97614-0.03634-1.3847 0.4191l-9.5991 10.005s-1.4344 1.3677 0.44556 1.343l0.78034-2e-3s0.66922 0.0279 1.3497-0.75283z"/>
  <path d="m47.632 90.503s0.39829-0.58738-0.56056-0.56727c0 0-0.84102 0-1.1772 0.40393l-7.9326 8.9126s-1.1892 1.2224 0.42651 1.1398l0.67098-0.0265s0.57609 2e-3 1.1359-0.69074z"/>
  <path d="m49.529 91.999s0.31291-0.49248-0.47801-0.44873c0 0-0.81174 0.03351-1.1642 0.43427l-6.2131 7.4168s-0.8389 1.0569 0.49177 0.94474l0.5528-0.0406s0.53305 0.0134 0.9772-0.56868z"/>
  <path d="m51.2 93.707s0.22684-0.28857-0.38418-0.33443c0 0-0.54751-0.06703-1.2157 0.48366l-4.5325 5.7337s-0.59478 0.88794 0.58596 0.77611l0.4311-0.0462s0.37112-0.0233 0.70379-0.48648z"/>
  <path d="m52.393 95.765s0.14182-0.25964-0.30339-0.29034c0 0-0.59231 0.0014-0.94192 0.38206l-2.8864 3.8336s-0.44344 0.72813 0.53446 0.6283l0.21484-0.0102s0.3235-0.0536 0.53763-0.36971z"/>
  <path d="m74.975 87.708s-0.58279-0.76094 0.71296-0.80962c0 0 1.1335-0.06491 1.62 0.45332l11.405 11.405s1.7011 1.5558-0.48578 1.5716l-0.90699 0.0159s-0.77788 0.0487-1.5886-0.84208z"/>
  <path d="m71.033 88.326s-0.55527-0.72602 0.6798-0.77188c0 0 1.0802-0.06209 1.5438 0.4318l10.869 10.869s1.6217 1.4831-0.4632 1.4986l-0.86431 0.0148s-0.74118 0.0462-1.5127-0.80362z"/>
  <path d="m67.91 89.284s-0.48754-0.66499 0.62688-0.68333c0 0 0.97614-0.03634 1.3847 0.4191l9.5991 10.005s1.4344 1.3677-0.44556 1.343l-0.78035-2e-3s-0.66887 0.0279-1.3494-0.75283z"/>
  <path d="m65.76 90.503s-0.39758-0.58738 0.56127-0.56727c0 0 0.84032 0 1.1765 0.40393l7.9329 8.9126s1.1892 1.2224-0.42686 1.1398l-0.67028-0.0265s-0.57714 2e-3 -1.1366-0.69074z"/>
  <path d="m63.864 91.999s-0.31256-0.49248 0.47802-0.44873c0 0 0.81174 0.03351 1.1642 0.43427l6.2131 7.4168s0.83891 1.0569-0.49177 0.94474l-0.5528-0.0406s-0.53305 0.0134-0.97684-0.56868z"/>
  <path d="m62.193 93.707s-0.22613-0.28857 0.38488-0.33443c0 0 0.5468-0.06703 1.2157 0.48366l4.5318 5.7337s0.59549 0.88794-0.58561 0.77611l-0.43109-0.0462s-0.37112-0.0233-0.70344-0.48648z"/>
  <path d="m61.008 95.721s-0.14217-0.26106 0.30268-0.29351c0 0 0.59161 0 0.9398 0.38453l2.8755 3.8696s0.44132 0.73519-0.53516 0.6357l-0.21414-0.0102s-0.3235-0.0529-0.53658-0.37147z"/>
 </g>
</svg>
